<?xml version="1.0" encoding="utf-8"?>
<!-- Generator: Adobe Illustrator 27.3.1, SVG Export Plug-In . SVG Version: 6.00 Build 0)  -->
<svg version="1.1" id="Layer_1" xmlns="http://www.w3.org/2000/svg" xmlns:xlink="http://www.w3.org/1999/xlink" x="0px" y="0px"
	 viewBox="0 0 595.3 841.9" style="enable-background:new 0 0 595.3 841.9;" xml:space="preserve">
<style type="text/css">
	.st0{fill:#FF0000;}
</style>
<g>
	<path class="st0" d="M-474.9,65.5c8.3,0.8,15.9,0.8,24.3,1.5c12.9,2.3,22.7,10.6,31.8,18.9c18.9,18.9,37.9,38.7,57.6,57.6
		c5.3,5.3,11.4,10.6,18.9,12.1c12.1,2.3,22.7,0,31.8-9.1c7.6-7.6,14.4-14.4,22-22c13.6-13.6,27.3-27.3,40.9-40.9
		c9.9-9.9,21.2-17.4,35.6-17.4c6.8,0,13.6,0,20.5-0.8c7.6-0.8,12.9,2.3,18.2,7.6c13.6,14.4,28,28.8,42.4,42.4
		c27.3,26.5,26.5,72.8,0,100c-15.9,15.9-31.1,31.8-47,47c-1.5,1.5-3,2.3-4.5,2.3c-9.1,0-17.4,0-26.5,0c-12.9-0.8-23.5-5.3-32.6-14.4
		c-15.2-15.2-30.3-29.6-45.5-44.7c-7.6-7.6-15.2-15.2-23.5-22c-15.2-13.6-32.6-12.9-46.2,0.8c-12.9,12.9-25.8,25.8-38.7,38.7
		c-9.1,9.1-18.2,18.2-28,26.5c-11.4,9.9-23.5,15.9-39.4,15.2c-7.6-0.8-15.9,0-23.5-0.8c-2.3,0-4.5-0.8-6.1-2.3
		c-17.4-17.4-34.9-34.1-51.5-52.3c-19.7-21.2-22.7-45.5-12.1-72.8c3-8.3,7.6-15.9,14.4-22c15.9-15.9,31.8-31.8,47.7-47.7
		c3-3,5.3-3.8,9.1-3.8C-483.2,66.2-478.7,66.2-474.9,65.5C-474.9,66.2-474.9,66.2-474.9,65.5z"/>
	<path class="st0" d="M-205.8,43.5c-8.3,1.5-16.7,3-25,4.5c-9.9,2.3-18.2,6.8-25.8,13.6c-10.6,10.6-21.2,21.2-31.8,31.8
		c-12.1,12.1-25,25-37.1,37.1c-6.1,6.1-11.4,6.1-17.4,0c-16.7-16.7-32.6-32.6-49.3-49.3c-7.6-7.6-15.9-15.2-23.5-22.7
		c-9.9-9.1-22.7-11.4-34.9-13.6c-6.1-0.8-11.4-0.8-18.2-1.5c0.8-1.5,1.5-2.3,2.3-3c26.5-25.8,53.1-52.3,78.8-78.1
		c15.2-15.2,33.3-22.7,54.6-21.2c14.4,0.8,27.3,5.3,38.7,15.2c7.6,6.1,14.4,12.9,21.2,19.7c21.2,21.2,43.2,42.4,64.4,64.4
		C-208.1,40.5-206.6,42-205.8,43.5z"/>
	<path class="st0" d="M-469.6,289.8c9.1-1.5,18.9-2.3,28-3.8c12.1-2.3,22-8.3,30.3-17.4c19.7-19.7,39.4-39.4,59.1-59.1
		c3-3,5.3-5.3,8.3-7.6c6.8-6.1,12.1-6.1,18.2,0c9.9,9.1,18.9,18.9,28,28c12.1,12.1,24.3,25,36.4,37.1c13.6,13.6,30.3,22,50,21.2
		c1.5,0,3,0,4.5,0c-0.8,1.5-1.5,2.3-2.3,3c-27.3,27.3-54.6,53.8-81.9,80.3c-14.4,13.6-31.8,21.2-52.3,19.7
		c-16.7-0.8-31.1-7.6-43.2-18.9c-22.7-22.7-46.2-44.7-69-67.5C-459.7,300.4-464.3,295.1-469.6,289.8z"/>
</g>
</svg>
